<?xml version="1.0" encoding="UTF-8"?>
<svg xmlns="http://www.w3.org/2000/svg" xmlns:xlink="http://www.w3.org/1999/xlink" id="Grupo_12208" data-name="Grupo 12208" width="98.26" height="98.26" viewBox="0 0 98.26 98.26">
  <defs>
    <linearGradient id="linear-gradient" x1="0.204" y1="-0.4" x2="1.868" y2="1.25" gradientUnits="objectBoundingBox">
      <stop offset="0" stop-color="#ddd"></stop>
      <stop offset="1" stop-color="#777"></stop>
    </linearGradient>
    <clipPath id="clip-path">
      <rect id="Rectángulo_5326" data-name="Rectángulo 5326" width="98.26" height="98.26" fill="url(#linear-gradient)"></rect>
    </clipPath>
  </defs>
  <g id="Grupo_12063" data-name="Grupo 12063" transform="translate(0 0)" clip-path="url(#clip-path)">
    <path id="Trazado_1578" data-name="Trazado 1578" d="M35.4,25.132a5.317,5.317,0,0,0-9.922,0L12.75,58.143a2.424,2.424,0,0,0,4.523,1.745L30,26.876a.47.47,0,0,1,.876,0L43.607,59.887a2.44,2.44,0,0,0,2.262,1.552,2.425,2.425,0,0,0,2.262-3.3Z" transform="translate(4.37 7.545)" fill="url(#linear-gradient)"></path>
    <path id="Trazado_1579" data-name="Trazado 1579" d="M46.737,58.038a5.317,5.317,0,0,0,9.922,0l12.729-33.01a2.424,2.424,0,1,0-4.523-1.745L52.136,56.294a.47.47,0,0,1-.876,0L38.531,23.283a2.44,2.44,0,0,0-2.262-1.552,2.425,2.425,0,0,0-2.262,3.3Z" transform="translate(11.752 7.545)" fill="url(#linear-gradient)"></path>
    <path id="Trazado_1580" data-name="Trazado 1580" d="M49.13,4.326a44.8,44.8,0,1,0,44.8,44.8,44.855,44.855,0,0,0-44.8-44.8m0,93.934A49.13,49.13,0,1,1,98.26,49.13,49.186,49.186,0,0,1,49.13,98.26" transform="translate(0 0)" fill="url(#linear-gradient)"></path>
  </g>
</svg>
