<svg width="180" height="28" viewBox="0 0 180 28" fill="none" xmlns="http://www.w3.org/2000/svg">
<path d="M153.626 27.1735H179.328V0.583496H153.626V27.1735ZM0.671875 27.1735H153.038V0.583496H0.671875V27.1735Z" fill="#243878"/>
<path d="M57.5362 10.586H63.5838C64.1717 10.586 64.5917 10.7527 64.8437 11.0028C65.0957 11.2528 65.2636 11.5863 65.2636 12.003C65.2636 12.5032 65.0957 12.8366 64.8437 13.0866C64.5917 13.3367 64.1717 13.5034 63.5838 13.5034H57.5362V10.586ZM57.5362 16.0874H62.4918L65.2636 20.4218H68.7074L68.5394 20.1718L65.7676 15.8373C67.3635 15.2539 68.2875 14.0035 68.2875 12.0864C68.2875 10.8361 67.8675 9.83582 67.1115 9.08563C66.3556 8.33544 65.2636 7.91867 63.9197 7.91867H54.5124V20.3385H57.5362V16.0874ZM43.7611 20.4218H46.7849V10.586H52.1605V8.00202H38.3854V10.586H43.7611V20.4218ZM175.464 2.58399C176.472 2.58399 177.144 3.33418 177.144 4.25107C177.144 5.16797 176.388 5.91816 175.464 5.91816C174.54 5.91816 173.784 5.16797 173.784 4.25107C173.784 3.33418 174.54 2.58399 175.464 2.58399ZM175.464 6.25158C176.64 6.25158 177.48 5.33468 177.48 4.33443C177.48 3.25082 176.64 2.41728 175.464 2.41728C174.372 2.41728 173.532 3.33418 173.532 4.33443C173.532 5.33468 174.372 6.25158 175.464 6.25158ZM77.9468 10.6694L80.2147 15.2539H75.679L77.9468 10.6694ZM74.419 17.8378H81.4746L82.7345 20.4218H85.8423L85.7583 20.2551L79.7107 8.00202H76.1829L70.0513 20.4218H73.0751L74.419 17.8378ZM13.4391 10.6694L15.707 15.2539H11.1713L13.4391 10.6694ZM9.91134 17.8378H16.9669L18.2268 20.4218H21.3346L21.2506 20.2551L15.203 8.00202H11.6752L5.54363 20.4218H8.65142L9.91134 17.8378ZM175.128 3.58424H175.38C175.716 3.58424 175.8 3.66759 175.8 3.91766C175.8 4.16772 175.632 4.25107 175.38 4.25107H175.044V3.58424H175.128ZM175.128 4.41778H175.464L175.884 5.33468H176.388L175.884 4.41778C176.22 4.33443 176.304 4.08436 176.304 3.8343C176.304 3.41753 175.968 3.25082 175.38 3.25082H174.708V5.33468H175.128V4.41778ZM32.5898 17.5878C32.0019 17.8378 31.1619 18.0879 29.986 18.0879C27.8861 18.0879 26.0383 17.5044 24.1064 16.2541L24.0224 16.1707L22.3425 18.338L22.4265 18.4213C24.6104 20.0884 26.9622 20.7552 29.818 20.7552C32.0019 20.7552 33.6818 20.3385 34.7737 19.5883C35.9496 18.8381 36.5376 17.7545 36.5376 16.4208C36.5376 15.1705 36.1176 14.337 35.1937 13.7535C34.2697 13.17 33.0098 12.8366 31.1619 12.6699C29.398 12.5032 27.9701 12.5865 26.9622 12.3364C26.6262 12.2531 26.4582 12.1697 26.2902 12.003C26.1223 11.9197 26.1223 11.753 26.1223 11.5863C26.1223 11.2528 26.3742 11.0028 26.9622 10.7527C27.5502 10.5027 28.3901 10.4193 29.566 10.4193C31.3299 10.4193 32.8418 10.8361 34.4377 11.753L34.5217 11.8363L34.6057 11.753L36.2856 9.66911L36.2016 9.58575C34.5217 8.41879 32.2538 7.75196 29.482 7.75196C27.4662 7.75196 25.8703 8.16873 24.7783 8.83556C23.6864 9.5024 23.0985 10.586 23.0985 11.8363C23.0985 13.0866 23.6864 14.0035 24.7783 14.587C25.8703 15.1705 27.5502 15.4206 29.734 15.5873C30.9099 15.6706 31.9179 15.6706 32.5058 15.8373C32.8418 15.9207 33.0938 16.004 33.1778 16.1707C33.3458 16.3375 33.4298 16.4208 33.4298 16.6709C33.4298 16.9209 33.1778 17.2544 32.5898 17.5878ZM103.565 9.33569H108.857C109.529 9.33569 110.033 9.5024 110.369 9.91917C110.705 10.3359 110.873 10.9194 110.873 11.753C110.873 12.5032 110.705 13.17 110.453 13.5868C110.201 14.0035 109.781 14.1702 109.193 14.1702H103.565V9.33569ZM103.565 15.4206H109.025C109.949 15.4206 110.705 15.0871 111.209 14.4203C111.713 13.7535 111.965 12.8366 111.965 11.753C111.965 10.586 111.713 9.66911 111.209 9.00227C110.705 8.33544 110.033 8.00202 109.193 8.00202H102.473V20.4218H103.565V15.4206ZM128.763 10.1692C129.519 9.33569 130.527 8.83556 131.703 8.83556C132.795 8.83556 133.887 9.33569 134.643 10.1692C135.567 11.1695 136.071 12.5032 136.071 14.1702C136.071 15.754 135.651 17.0876 134.895 18.0045C134.139 18.9214 133.047 19.4216 131.787 19.4216C130.527 19.4216 129.435 18.9214 128.679 18.0045C127.923 17.0876 127.504 15.754 127.504 14.1702C127.42 12.5032 127.839 11.2528 128.763 10.1692ZM131.703 20.7552C133.215 20.7552 134.559 20.0884 135.483 19.0048C136.575 17.7545 137.163 16.0874 137.163 14.1702C137.163 12.1697 136.575 10.586 135.483 9.33569C134.559 8.25208 133.215 7.58525 131.703 7.58525C130.275 7.58525 128.931 8.25208 127.923 9.33569C126.832 10.586 126.244 12.2531 126.244 14.1702C126.244 16.1707 126.832 17.7545 127.923 19.0048C128.847 20.1718 130.191 20.7552 131.703 20.7552ZM179.328 22.589L166.561 0.583481L153.626 22.589H163.621C157.574 19.2549 159.085 10.4193 166.561 9.91917C174.372 10.5027 175.044 19.9217 169.333 22.589H179.328V27.1735H153.626V0.583481H166.561H179.328V22.589ZM153.038 27.1735H0.671955V0.583481H153.038V27.1735ZM0 27.757H180V0H0V27.757ZM147.41 19.0882H140.607V8.00202H139.515V20.4218H147.326V19.0882H147.41ZM115.996 10.1692C116.752 9.33569 117.76 8.83556 118.936 8.83556C120.112 8.83556 121.12 9.33569 121.876 10.1692C122.8 11.1695 123.304 12.5032 123.304 14.1702C123.304 15.754 122.884 17.0876 122.128 18.0045C121.372 18.9214 120.28 19.4216 119.02 19.4216C117.76 19.4216 116.668 18.9214 115.912 18.0045C115.156 17.0876 114.736 15.754 114.736 14.1702C114.652 12.5032 115.072 11.2528 115.996 10.1692ZM118.936 20.7552C120.448 20.7552 121.792 20.0884 122.716 19.0048C123.808 17.7545 124.396 16.0874 124.396 14.1702C124.396 12.1697 123.808 10.586 122.716 9.33569C121.792 8.25208 120.448 7.58525 118.936 7.58525C117.508 7.58525 116.164 8.25208 115.156 9.33569C114.064 10.586 113.476 12.2531 113.476 14.1702C113.476 16.1707 114.064 17.7545 115.156 19.0048C116.08 20.1718 117.424 20.7552 118.936 20.7552ZM99.5334 17.8378H90.8819V8.00202H87.8581V20.4218H99.5334V17.8378Z" fill="white"/>
</svg>
