<?xml version="1.0" encoding="UTF-8"?>
<svg id="Layer_1" data-name="Layer 1" xmlns="http://www.w3.org/2000/svg" viewBox="0 0 1775.01 588.12">
  <defs>
    <style>
      .cls-1 {
        fill: #fff;
      }
    </style>
  </defs>
  <g>
    <path class="cls-1" d="M1742.54.16L32.5,0C14.62,0,0,14.78,0,32.63v393.25c0,18,14.62,32.63,32.5,32.63h1710.03c17.82,0,32.47-14.63,32.47-32.63V32.63c0-17.85-14.65-32.47-32.47-32.47ZM1749.48,430.27H27.45V26.24h1722.03v404.03Z"/>
    <path class="cls-1" d="M1609.94,228.81c36.94,0,66.88-29.92,66.88-66.86s-29.95-66.86-66.88-66.86h-394.61c-2.48,0-4.54,2.01-4.54,4.49v258.43c0,2.48,2.06,4.49,4.54,4.49h394.61c36.94,0,66.88-29.92,66.88-66.83s-29.95-66.86-66.88-66.86M1536.38,317.77h-215.43v-57.57h215.43c15.89,0,28.76,12.9,28.76,28.79s-12.87,28.79-28.76,28.79M1536.38,196.41h-215.43v-57.55h215.43c15.89,0,28.76,12.87,28.76,28.76s-12.87,28.79-28.76,28.79"/>
    <path class="cls-1" d="M925.18,98.7c-1.62-1.88-4.95-3.4-7.43-3.4h-97.94c-2.48,0-5.8,1.52-7.4,3.43l-222.99,260.26c-1.6,1.88-.88,3.4,1.55,3.4h67.87c2.47,0,5.83-1.52,7.4-3.4l41.99-49.34c1.6-1.91,4.93-3.43,7.4-3.43l253.32-.15c2.5,0,5.83,1.55,7.46,3.4l42.74,49.55c1.62,1.86,4.95,3.38,7.45,3.38h121.95c2.47,0,3.2-1.52,1.55-3.38l-224.92-260.31ZM748.16,264.66c-2.48,0-3.17-1.55-1.55-3.4l93.32-106.66c1.6-1.86,4.31-1.88,5.96-.03l94.97,106.73c1.65,1.83.95,3.35-1.52,3.35h-191.18Z"/>
    <path class="cls-1" d="M1712.87,52.95c3.53,0,6.89.98,10.29,2.73,3.38,1.96,5.96,4.54,7.89,7.89,1.88,3.38,2.86,6.94,2.86,10.45,0,3.71-.98,7.27-2.86,10.45-1.81,3.4-4.36,5.93-7.74,7.92-3.38,1.75-6.91,2.71-10.44,2.71s-7.28-.95-10.47-2.71c-3.35-1.99-5.94-4.51-7.87-7.92-1.75-3.17-2.71-6.73-2.71-10.45,0-3.51.95-7.07,2.71-10.45,1.93-3.35,4.52-5.93,7.87-7.89,3.38-1.75,6.94-2.73,10.47-2.73M1712.87,56.51c-3.07,0-5.94.77-8.69,2.24-2.74,1.62-4.98,3.69-6.6,6.63-1.57,2.71-2.24,5.57-2.24,8.64,0,3.07.67,5.96,2.24,8.69,1.62,2.89,3.74,4.98,6.45,6.6,2.91,1.6,5.78,2.22,8.85,2.22,3.04,0,5.93-.62,8.67-2.22,2.76-1.62,5-3.71,6.42-6.6,1.6-2.73,2.42-5.62,2.42-8.69s-.82-5.93-2.42-8.64c-1.6-2.94-3.66-5-6.58-6.63-2.71-1.47-5.62-2.24-8.51-2.24M1703.53,85.78v-22.7h7.89c2.58,0,4.49.18,5.78.64,1.11.31,2.09,1.13,2.73,2.12.8,1.11,1.11,2.24,1.11,3.38,0,1.62-.62,3.02-1.75,4.31-1.11,1.13-2.73,1.96-4.64,2.09.77.34,1.45.67,1.91,1.13.82.98,1.93,2.42,3.2,4.54l2.92,4.49h-4.49l-2.09-3.71c-1.45-2.73-2.74-4.49-3.72-5.13-.8-.64-1.75-.8-3.04-.8h-2.11v9.65h-3.69ZM1707.22,72.89h4.51c2.09,0,3.53-.31,4.36-.98.62-.44,1.11-1.39,1.11-2.37,0-.64-.15-1.32-.65-1.78-.33-.62-.8-.95-1.42-1.29-.64-.15-1.96-.31-3.71-.31h-4.2v6.73Z"/>
    <path class="cls-1" d="M433.28,96.08H99.56c-2.5,0-4.57,2.06-4.57,4.57v177.87c0,2.53,2.07,4.57,4.57,4.57l105.21-.26c2.53,0,4.57-2.04,4.57-4.57l-.21-123.19c0-2.53,2.06-4.57,4.57-4.57h106.5s3.51,0,3.51,0h58.22c44.34,0,80.32,35.98,80.32,80.35,0,44.34-35.98,80.32-80.32,80.32H99.56c-2.5,0-4.57,2.06-4.57,4.59v47.28c0,2.53,2.07,4.59,4.57,4.59h333.72c71.27,0,129.02-57.8,129.02-129.07v-13.44c0-71.27-57.75-129.05-129.02-129.05"/>
  </g>
  <g>
    <path class="cls-1" d="M25.63,501.3l12.21,60.35h.24l12.33-60.35h25.51v85.5h-15.81v-68.26h-.24l-15.21,68.26h-13.41l-15.21-68.26h-.24v68.26H0v-85.5h25.63Z"/>
    <path class="cls-1" d="M175.31,501.3l22.63,85.5h-17.96l-3.95-18.08h-22.75l-3.95,18.08h-17.96l22.63-85.5h21.32ZM173.03,554.59l-8.26-38.44h-.24l-8.26,38.44h16.76Z"/>
    <path class="cls-1" d="M270.27,535.55h.24l21.79-34.25h18.68l-23.23,36.65,25.87,48.86h-19.4l-17.6-35.09-6.35,9.7v25.39h-17.24v-85.5h17.24v34.25Z"/>
    <path class="cls-1" d="M367.27,501.3h17.24v85.5h-17.24v-85.5Z"/>
    <path class="cls-1" d="M487.13,559.86h.24v-58.56h15.81v85.5h-19.64l-21.07-59.87h-.24v59.87h-15.81v-85.5h19.88l20.84,58.56Z"/>
    <path class="cls-1" d="M601.67,521.78c-.36-1.67-.94-3.21-1.74-4.61-.8-1.39-1.82-2.55-3.05-3.47-1.24-.92-2.74-1.38-4.49-1.38-4.15,0-7.15,2.32-8.98,6.95-1.84,4.63-2.75,12.29-2.75,22.99,0,5.11.16,9.74.48,13.89.32,4.15.9,7.69,1.74,10.6.84,2.92,2.04,5.15,3.59,6.71s3.57,2.33,6.05,2.33c1.04,0,2.17-.28,3.41-.84,1.24-.56,2.39-1.4,3.47-2.52,1.08-1.11,1.98-2.53,2.7-4.25.72-1.72,1.08-3.74,1.08-6.05v-8.74h-11.38v-12.7h27.9v46.11h-12.69v-7.9h-.24c-2.08,3.35-4.57,5.73-7.48,7.13-2.91,1.39-6.4,2.09-10.48,2.09-5.27,0-9.56-.92-12.87-2.75-3.31-1.84-5.91-4.67-7.79-8.51-1.88-3.83-3.13-8.56-3.77-14.19-.64-5.63-.96-12.16-.96-19.58s.46-13.49,1.38-18.92c.92-5.43,2.49-9.96,4.73-13.6,2.23-3.63,5.19-6.36,8.86-8.2,3.67-1.84,8.26-2.76,13.77-2.76,9.42,0,16.21,2.33,20.36,7s6.23,11.36,6.23,20.06h-16.53c0-1.59-.18-3.23-.54-4.91Z"/>
    <path class="cls-1" d="M754.3,501.3l9.46,63.23h.24l10.06-63.23h16.52l10.06,63.23h.24l9.46-63.23h16.53l-15.57,85.5h-19.28l-9.58-62.03h-.24l-9.58,62.03h-19.28l-15.57-85.5h16.53Z"/>
    <path class="cls-1" d="M918.71,501.3l22.64,85.5h-17.96l-3.95-18.08h-22.76l-3.95,18.08h-17.96l22.63-85.5h21.31ZM916.45,554.59l-8.27-38.44h-.23l-8.26,38.44h16.77Z"/>
    <path class="cls-1" d="M1039.9,515.43h-18.68v71.37h-17.24v-71.37h-18.69v-14.13h54.61v14.13Z"/>
    <path class="cls-1" d="M1144.21,515.43h-30.54v20.12h28.74v14.13h-28.74v22.99h31.73v14.13h-48.97v-85.5h47.78v14.13Z"/>
    <path class="cls-1" d="M1234.97,501.3c7.18,0,12.77,1.82,16.77,5.45,3.99,3.63,5.99,9.16,5.99,16.58,0,5.75-1.16,10.44-3.47,14.07-2.32,3.64-5.91,5.97-10.78,7.01v.23c4.31.64,7.47,2.04,9.46,4.19,2,2.16,3.24,5.63,3.72,10.42.15,1.6.28,3.34.36,5.21.08,1.88.16,3.98.24,6.29.16,4.55.4,8.02.72,10.42.47,2.39,1.51,4.03,3.11,4.91v.72h-18.69c-.88-1.2-1.43-2.57-1.67-4.13-.24-1.56-.4-3.18-.48-4.85l-.48-16.41c-.16-3.35-1-5.98-2.51-7.9-1.52-1.91-4.07-2.87-7.66-2.87h-9.23v36.17h-17.24v-85.5h31.85ZM1227.55,538.67c4.15,0,7.34-.98,9.58-2.94,2.23-1.96,3.35-5.25,3.35-9.88,0-7.9-3.99-11.85-11.98-11.85h-8.14v24.67h7.19Z"/>
    <path class="cls-1" d="M1433.25,515.43h-30.54v20.12h28.74v14.13h-28.74v22.99h31.73v14.13h-48.97v-85.5h47.78v14.13Z"/>
    <path class="cls-1" d="M1530.12,501.3l22.64,85.5h-17.97l-3.95-18.08h-22.75l-3.95,18.08h-17.96l22.63-85.5h21.31ZM1527.85,554.59l-8.27-38.44h-.24l-8.26,38.44h16.77Z"/>
    <path class="cls-1" d="M1621.74,562.62c0,1.99.16,3.81.48,5.45.31,1.64.91,3.02,1.79,4.13.88,1.12,2.06,2,3.53,2.63,1.48.64,3.34.96,5.57.96,2.63,0,5.01-.86,7.13-2.57,2.11-1.72,3.17-4.37,3.17-7.96,0-1.91-.26-3.57-.78-4.97-.52-1.39-1.38-2.65-2.58-3.77-1.19-1.12-2.77-2.14-4.73-3.05-1.96-.92-4.37-1.86-7.24-2.82-3.83-1.27-7.15-2.67-9.94-4.19-2.79-1.51-5.13-3.29-7-5.32-1.88-2.04-3.26-4.39-4.13-7.07-.88-2.68-1.32-5.77-1.32-9.28,0-8.46,2.35-14.77,7.06-18.92,4.71-4.15,11.18-6.23,19.4-6.23,3.83,0,7.37.42,10.6,1.26,3.24.84,6.03,2.2,8.38,4.07,2.36,1.88,4.19,4.27,5.51,7.18,1.32,2.92,1.98,6.41,1.98,10.48v2.39h-16.53c0-4.07-.72-7.21-2.15-9.4-1.43-2.19-3.83-3.29-7.18-3.29-1.92,0-3.51.28-4.79.84-1.27.55-2.3,1.3-3.05,2.21-.76.92-1.27,1.98-1.56,3.18-.28,1.2-.42,2.44-.42,3.71,0,2.63.56,4.85,1.68,6.65,1.11,1.8,3.51,3.45,7.18,4.97l13.29,5.75c3.27,1.44,5.95,2.94,8.02,4.49,2.07,1.56,3.73,3.23,4.97,5.03,1.24,1.8,2.09,3.77,2.57,5.93.48,2.15.72,4.55.72,7.19,0,9.02-2.62,15.58-7.85,19.7-5.23,4.11-12.51,6.17-21.85,6.17s-16.71-2.12-20.9-6.35c-4.19-4.23-6.28-10.3-6.28-18.2v-3.48h17.25v2.52Z"/>
    <path class="cls-1" d="M1744.11,534.35h.24l11.98-33.05h18.68l-22.16,51.85v33.65h-17.24v-33.65l-22.16-51.85h19.4l11.26,33.05Z"/>
  </g>
</svg>