<svg width="361" height="40" viewBox="0 0 361 40" fill="none" xmlns="http://www.w3.org/2000/svg">
    <path fill-rule="evenodd" clip-rule="evenodd" d="M0.16903 12.0997C0.16903 10.9503 0 8.51629 0 7.7057H2.02911C2.06217 8.85511 2.09447 10.139 2.16283 10.444H2.26425C3.07559 8.72063 5.06865 7.30078 7.60334 7.30078C9.66551 7.30078 11.5586 8.31421 12.3009 10.6799C13.282 8.34726 15.4448 7.30078 17.6077 7.30078C22.4742 7.30078 23.556 10.613 23.556 14.0252V23.3196H21.5277V14.1266C21.5277 11.5919 20.8177 9.12555 17.6077 9.12555C13.8559 9.12555 12.8771 12.3026 12.8771 14.533V23.3196H10.848V13.9245C10.848 11.051 9.80148 9.12555 7.60334 9.12555C4.59686 9.12555 2.19589 11.2208 2.19589 15.5134V23.3196H0.16903V12.0997Z" fill="black"/>
    <path fill-rule="evenodd" clip-rule="evenodd" d="M35.686 15.4798C32.3069 15.4798 28.9263 16.3242 28.9263 18.9941C28.9263 20.9203 30.7864 21.9007 32.4766 21.9007C36.8008 21.9007 37.9172 19.1286 37.9172 16.5285V15.4798H35.686ZM39.7419 16.7637C39.7419 19.8055 39.8095 21.5288 40.0454 23.3205H38.1531C38.0178 22.543 37.9502 21.6633 37.9502 20.7858H37.8819C36.7347 22.7796 35.0444 23.7255 32.4083 23.7255C29.7376 23.7255 26.8994 22.4085 26.8994 19.0955C26.8994 14.3304 32.4767 13.8571 35.55 13.8571H37.9172V12.9105C37.9172 10.2083 36.0248 9.12653 33.5231 9.12653C31.6984 9.12653 30.144 9.70048 28.7572 10.8829L27.5748 9.4984C29.063 8.07779 31.494 7.30176 33.5231 7.30176C37.3087 7.30176 39.7419 8.99056 39.7419 12.9451V16.7637Z" fill="black"/>
    <path fill-rule="evenodd" clip-rule="evenodd" d="M48.8643 28.1529C48.086 30.1459 46.8022 31.4298 44.5732 31.4298C43.8964 31.4298 43.2195 31.2961 42.5794 31.1271L42.7815 29.2339C43.3555 29.403 43.997 29.6058 44.6063 29.6058C46.0922 29.6058 46.7361 28.2205 47.2086 27.0035L48.6292 23.387L42.2744 7.70703H44.5379L49.7087 20.8523L54.7443 7.70703H56.9079L48.8643 28.1529Z" fill="black"/>
    <path fill-rule="evenodd" clip-rule="evenodd" d="M68.5998 9.53116H64.1396V19.7045C64.1396 21.0891 64.9502 21.9004 66.3025 21.9004C67.0785 21.9004 67.8899 21.663 68.5998 21.3603L68.7688 23.1843C68.0258 23.4547 66.9095 23.7252 66.1335 23.7252C63.2254 23.7252 62.1105 21.9334 62.1105 19.7045V9.53116H58.7314V7.70638H62.1105V3.21094H64.1396V7.70638H68.5998V9.53116Z" fill="black"/>
    <path fill-rule="evenodd" clip-rule="evenodd" d="M72.8915 12.0997C72.8915 10.9503 72.7217 8.51629 72.7217 7.7057H74.7508C74.7838 8.85511 74.8169 10.139 74.8853 10.444C75.8987 8.61997 77.5214 7.30078 79.8532 7.30078C80.2582 7.30078 80.6315 7.36914 81.0357 7.46981L80.7983 9.46361C80.4956 9.36295 80.2251 9.32839 80.0223 9.32839C76.5072 9.32839 74.9183 11.7609 74.9183 14.8035V23.3196H72.8915V12.0997Z" fill="black"/>
    <path fill-rule="evenodd" clip-rule="evenodd" d="M115.233 12.0997C115.233 10.9503 115.064 8.51629 115.064 7.7057H117.093C117.126 8.85511 117.159 10.139 117.227 10.444H117.329C118.139 8.72063 120.133 7.30078 122.668 7.30078C127.535 7.30078 128.616 10.613 128.616 14.0252V23.3196H126.589V14.1266C126.589 11.5919 125.879 9.12555 122.668 9.12555C119.661 9.12555 117.26 11.2208 117.26 15.5134V23.3196H115.233V12.0997Z" fill="black"/>
    <mask id="mask0_99_2150" style="mask-type:alpha" maskUnits="userSpaceOnUse" x="0" y="0" width="361" height="41">
    <path fill-rule="evenodd" clip-rule="evenodd" d="M0 40.0005H360.661V0.000488281H0V40.0005Z" fill="white"/>
    </mask>
    <g mask="url(#mask0_99_2150)">
    <path fill-rule="evenodd" clip-rule="evenodd" d="M132.332 23.3214H134.359V7.70675H132.332V23.3214ZM133.346 0.000488281C134.19 0.000488281 134.867 0.677359 134.867 1.52176C134.867 2.36541 134.19 3.04228 133.346 3.04228C132.501 3.04228 131.825 2.36541 131.825 1.52176C131.825 0.677359 132.501 0.000488281 133.346 0.000488281Z" fill="black"/>
    <path fill-rule="evenodd" clip-rule="evenodd" d="M151.832 21.0218C150.311 22.8465 148.317 23.7255 146.086 23.7255C141.287 23.7255 137.873 20.2788 137.873 15.5129C137.873 10.7478 141.287 7.30029 146.086 7.30029C148.352 7.30029 150.378 8.28067 151.9 10.004L150.278 11.2203C149.094 9.93641 147.708 9.12507 146.086 9.12507C142.268 9.12507 139.902 11.9978 139.902 15.5129C139.902 19.028 142.268 21.9007 146.086 21.9007C147.776 21.9007 149.23 21.0218 150.278 19.7379L151.832 21.0218Z" fill="black"/>
    <path fill-rule="evenodd" clip-rule="evenodd" d="M155.716 19.3324C156.56 20.9874 158.419 21.9002 160.244 21.9002C162.003 21.9002 163.827 20.8192 163.827 19.0289C163.827 14.7356 154.566 17.7428 154.566 11.7945C154.566 8.75418 157.338 7.30127 159.907 7.30127C162.442 7.30127 164.401 8.24709 165.414 10.2401L163.589 11.3219C162.813 9.90358 161.732 9.12604 159.907 9.12604C158.452 9.12604 156.595 10.005 156.595 11.6277C156.595 15.8519 165.854 12.5728 165.854 18.893C165.854 22.1038 163.185 23.725 160.211 23.725C157.54 23.725 155.142 22.7108 153.924 20.5495L155.716 19.3324Z" fill="black"/>
    <path fill-rule="evenodd" clip-rule="evenodd" d="M96.303 7.14648C87.8027 7.17428 80.9138 14.6529 80.8477 23.9015C81.6658 24.184 82.4733 24.513 83.2584 24.8976C84.2425 25.3521 85.1636 25.8878 85.8697 26.316C85.7375 25.5775 85.6624 24.8158 85.6624 24.0367C85.6624 17.6354 90.4313 12.4247 96.303 12.3954C102.172 12.4247 106.942 17.6354 106.942 24.0367C106.942 24.8158 106.78 26.319 106.645 27.0552C108.852 26.5714 111.088 24.8135 111.758 23.9015C111.691 14.6529 104.803 7.17428 96.303 7.14648Z" fill="black"/>
    <path fill-rule="evenodd" clip-rule="evenodd" d="M110.609 27.7107C107.754 30.3694 102.787 33.0378 96.5581 32.5863C93.4915 32.3925 90.4828 31.4316 87.8489 30.0253C87.2472 29.6887 86.4321 29.2365 86.0219 28.978C85.6177 28.7309 85.2203 28.4402 84.8101 28.2058C83.995 27.7212 83.1649 27.2585 82.3175 26.8738C78.9542 25.2684 75.1649 24.6772 71.5409 25.1129C64.4792 25.9686 59.2513 29.7323 58.9335 29.9329C58.9335 29.9366 58.929 29.9381 58.9268 29.9404C59.201 29.8405 64.4409 27.4853 70.8182 28.0615C74.0809 28.3575 77.318 29.5858 80.0112 31.6322C80.6918 32.1295 81.3454 32.6907 81.9839 33.2699C82.3047 33.5501 82.609 33.8844 82.923 34.1752C83.2415 34.4809 83.8838 35.0338 84.3549 35.4403C86.4426 37.1704 88.9322 38.5797 91.5976 39.3264C97.0036 40.8928 101.812 39.4744 104.762 37.6729C107.803 35.8294 109.488 33.6606 110.521 31.8831C112.539 28.2584 112.131 26.1038 112.16 26.1301C112.16 26.1286 112.155 26.1286 112.152 26.1286C111.69 26.6552 111.18 27.1841 110.609 27.7107Z" fill="black"/>
    <path fill-rule="evenodd" clip-rule="evenodd" d="M96.303 7.12451C87.8027 7.15306 80.9138 14.6309 80.8477 23.8795C81.6658 24.162 82.4733 24.4918 83.2584 24.8757C84.2425 25.3302 85.1636 25.8658 85.8697 26.294C85.7375 25.5555 85.6624 24.7938 85.6624 24.0155C85.6624 17.6134 90.4313 12.4028 96.303 12.3735C102.175 12.4028 106.944 17.6134 106.944 24.0155C106.944 24.7938 106.78 26.297 106.645 27.0332C108.85 26.5494 111.088 24.7923 111.758 23.8795C111.691 14.6309 104.803 7.15306 96.303 7.12451Z" fill="black"/>
    <path fill-rule="evenodd" clip-rule="evenodd" d="M110.609 27.6884C107.754 30.347 102.787 33.0162 96.5581 32.5639C93.4915 32.3701 90.4828 31.4093 87.8489 30.0029C87.2472 29.6671 86.4321 29.2149 86.0219 28.9565C85.6177 28.7085 85.2203 28.4178 84.8101 28.1834C83.995 27.6989 83.1672 27.2361 82.3175 26.8515C78.9542 25.2461 75.1649 24.6548 71.5409 25.0913C64.4792 25.9462 59.2513 29.71 58.9335 29.9105C58.9335 29.9143 58.929 29.9165 58.9268 29.9181C59.201 29.8181 64.4409 27.463 70.8182 28.0392C74.0809 28.3352 77.318 29.5635 80.0112 31.6099C80.6918 32.1072 81.3454 32.6691 81.9839 33.2476C82.3047 33.5285 82.609 33.8621 82.923 34.1528C83.2415 34.4586 83.8838 35.0115 84.3549 35.4179C86.4426 37.1488 88.9322 38.5581 91.5976 39.3041C97.0036 40.8712 101.812 39.4528 104.762 37.6506C107.803 35.8071 109.488 33.6367 110.521 31.8615C112.539 28.236 112.131 26.0814 112.16 26.1077C112.16 26.107 112.155 26.107 112.152 26.107C111.69 26.6336 111.18 27.1617 110.609 27.6884Z" fill="#58C8DF"/>
    <path d="M181.873 30.8631V0.700684" stroke="black" stroke-width="1.161"/>
    <path fill-rule="evenodd" clip-rule="evenodd" d="M206.834 10.5259H204.138C202.155 10.5259 201.779 10.8887 201.5 12.6271L201.213 14.4316H205.99L205.835 15.421H201.057L200.737 17.4471C200.68 17.8099 200.643 18.1112 200.643 18.3613C200.643 19.3124 201.142 19.534 202.712 19.534H205.406L205.255 20.4956C204.393 20.5324 203.418 20.5475 202.593 20.5475C200.939 20.5475 199.39 20.4716 199.39 18.7189C199.39 18.5401 199.408 18.3418 199.441 18.1254L200.421 11.9442C200.794 9.61686 202.518 9.51318 204.341 9.51318C205.029 9.51318 206.103 9.54098 206.979 9.57929L206.834 10.5259Z" fill="black"/>
    <path fill-rule="evenodd" clip-rule="evenodd" d="M213.614 12.1274H214.844L211.532 16.1278L213.779 20.5181H212.455L210.717 17.0413L207.9 20.5181H206.65L210.255 16.1556L208.205 12.1274H209.51L211.074 15.2564L213.614 12.1274Z" fill="black"/>
    <path fill-rule="evenodd" clip-rule="evenodd" d="M218.393 20.6319C216.268 20.6319 215.655 19.4637 215.655 17.8335C215.655 17.3339 215.712 16.7968 215.802 16.2319C216.24 13.4846 217.083 12.0151 220.056 12.0151C220.777 12.0151 221.365 12.1143 221.855 12.2555L221.625 13.1315C221.266 13.0654 220.72 12.9903 220.277 12.9903C217.728 12.9903 217.31 13.909 216.941 16.2319C216.847 16.8254 216.777 17.3482 216.777 17.796C216.777 18.9919 217.285 19.6433 219.208 19.6433C219.627 19.6433 220.211 19.5441 220.621 19.4637L220.583 20.387C219.901 20.523 219.241 20.6319 218.393 20.6319Z" fill="black"/>
    <path fill-rule="evenodd" clip-rule="evenodd" d="M225.549 16.0947C226.279 16.0616 227.528 15.9624 228.304 15.8633C228.347 15.6942 228.389 15.4493 228.418 15.275C228.451 15.0579 228.47 14.8559 228.47 14.662C228.47 13.5975 227.913 12.9477 226.387 12.9477C224.347 12.9477 223.702 14.031 223.358 16.1983L225.549 16.0947ZM226.524 12.0146C228.804 12.0146 229.563 13.0085 229.563 14.6245C229.563 14.9828 229.525 15.378 229.459 15.7934C229.421 16.0285 229.365 16.3396 229.313 16.589C228.347 16.7497 226.369 16.9383 225.209 16.9849L223.249 17.0653C223.235 17.2726 223.226 17.4604 223.226 17.6445C223.226 18.9824 223.711 19.6661 225.558 19.6661C226.628 19.6661 227.636 19.5481 228.493 19.4302L228.456 20.3535C227.489 20.4992 226.52 20.6314 224.964 20.6314C222.82 20.6314 222.114 19.4723 222.114 17.7436C222.114 17.3004 222.161 16.8249 222.241 16.3208C222.722 13.2775 223.824 12.0146 226.524 12.0146Z" fill="black"/>
    <path fill-rule="evenodd" clip-rule="evenodd" d="M237.427 16.3258C237.507 15.836 237.549 15.398 237.549 15.0156C237.549 13.6401 236.979 12.9617 235.382 12.9617C234.746 12.9617 233.94 13.0796 233.342 13.3388C233.257 13.7392 233.163 14.2621 233.102 14.658L232.357 19.3555C232.838 19.5343 233.588 19.6846 234.218 19.6846C236.503 19.6846 237.055 18.6764 237.427 16.3258ZM231.683 23.6098H230.562L232.065 14.1209C232.141 13.6311 232.235 13.1503 232.339 12.689C233.319 12.2037 234.497 12.0151 235.533 12.0151C237.687 12.0151 238.698 12.7258 238.698 14.8045C238.698 15.247 238.652 15.7511 238.563 16.3258C238.054 19.5343 236.88 20.6319 234.426 20.6319C233.644 20.6319 232.9 20.5095 232.207 20.3209L231.683 23.6098Z" fill="black"/>
    <path fill-rule="evenodd" clip-rule="evenodd" d="M243.32 9.75781L242.943 12.1272H244.775L244.634 13.0317H242.802L241.968 18.2807C241.935 18.4835 241.92 18.6525 241.92 18.8035C241.92 19.5435 242.311 19.6938 243.141 19.6938C243.296 19.6938 243.442 19.684 243.593 19.6705L243.546 20.5419C243.264 20.5885 242.914 20.6313 242.646 20.6313C241.35 20.6313 240.762 20.1468 240.762 19.0672C240.762 18.8742 240.78 18.6668 240.818 18.4362L241.675 13.0317H240.177L240.319 12.1272H241.821L242.165 9.94187L243.32 9.75781Z" fill="black"/>
    <path fill-rule="evenodd" clip-rule="evenodd" d="M246.692 9.9559C246.692 9.86199 246.708 9.74855 246.726 9.61709C246.825 8.99505 247.013 8.77344 247.531 8.77344C247.946 8.77344 248.106 8.91016 248.106 9.27752C248.106 9.37669 248.092 9.48487 248.073 9.61709C247.979 10.2293 247.804 10.4412 247.268 10.4412C246.848 10.4412 246.692 10.3097 246.692 9.9559ZM246.439 12.1277H247.564L246.236 20.5191H245.11L246.439 12.1277Z" fill="black"/>
    <path fill-rule="evenodd" clip-rule="evenodd" d="M252.321 19.6661C254.2 19.6661 254.978 18.8743 255.383 16.3208C255.472 15.7461 255.52 15.2608 255.52 14.8559C255.52 13.4563 254.945 12.9807 253.475 12.9807C251.618 12.9807 250.841 13.6591 250.417 16.3208C250.323 16.9143 250.276 17.4093 250.276 17.8195C250.276 19.2514 250.879 19.6661 252.321 19.6661ZM249.145 17.8849C249.145 17.4281 249.193 16.9098 249.287 16.3208C249.786 13.1828 250.93 12.0146 253.584 12.0146C255.741 12.0146 256.65 12.8155 256.65 14.78C256.65 15.2322 256.598 15.7408 256.509 16.3208C256.019 19.4016 254.87 20.6314 252.216 20.6314C250.059 20.6314 249.145 19.8591 249.145 17.8849Z" fill="black"/>
    <path fill-rule="evenodd" clip-rule="evenodd" d="M264.752 15.275C264.804 14.931 264.841 14.6342 264.841 14.3706C264.841 13.4187 264.39 12.9755 262.773 12.9755C262.09 12.9755 261.025 13.1498 260.479 13.3857C260.394 13.7816 260.299 14.3044 260.239 14.7003L259.315 20.5187H258.198L259.206 14.1489C259.282 13.6591 259.377 13.1783 259.476 12.7171C260.475 12.3016 261.826 12.0146 263.301 12.0146C265.478 12.0146 266.005 12.8297 266.005 13.9934C266.005 14.3277 265.962 14.6906 265.901 15.0677L265.04 20.5187H263.923L264.752 15.275Z" fill="black"/>
    <path fill-rule="evenodd" clip-rule="evenodd" d="M272.841 19.322C272.925 18.9216 273.02 18.3987 273.081 18.0028L273.378 16.1367C272.436 16.1563 271.112 16.1841 270.222 16.3636C269.256 16.5559 268.785 16.9383 268.6 18.0967C268.577 18.2575 268.564 18.3987 268.564 18.5302C268.564 19.4587 269.199 19.6991 270.556 19.6991C271.272 19.6991 272.092 19.6045 272.841 19.322ZM274.104 18.5257C274.028 19.0155 273.934 19.4955 273.83 19.9583C272.785 20.4481 271.602 20.6314 270.288 20.6314C268.351 20.6314 267.428 20.0988 267.428 18.7383C267.428 18.5497 267.447 18.3469 267.48 18.1253C267.71 16.6694 268.459 15.7506 269.958 15.5245C270.989 15.369 272.252 15.3216 273.514 15.2796L273.571 14.9077C273.609 14.6816 273.628 14.4735 273.628 14.2902C273.628 13.3616 273.124 12.971 271.639 12.971C270.688 12.971 269.751 13.0844 268.855 13.2114L268.898 12.3069C269.859 12.1559 270.834 12.0146 271.998 12.0146C273.567 12.0146 274.782 12.382 274.782 13.9604C274.782 14.1437 274.764 14.3465 274.731 14.5636L274.104 18.5257Z" fill="black"/>
    <path fill-rule="evenodd" clip-rule="evenodd" d="M278.096 8.88672H279.213L277.729 18.2668C277.691 18.5214 277.668 18.7521 277.668 18.9684C277.668 19.5251 277.8 19.9766 278.054 20.392L277.022 20.8909C276.702 20.4341 276.522 19.906 276.522 19.1998C276.522 18.9406 276.551 18.6574 276.598 18.3471L278.096 8.88672Z" fill="black"/>
    <path fill-rule="evenodd" clip-rule="evenodd" d="M292.426 10.5259H289.731C287.748 10.5259 287.371 10.8887 287.093 12.6271L286.806 14.4316H291.583L291.427 15.421H286.65L286.33 17.4471C286.274 17.8099 286.235 18.1112 286.235 18.3613C286.235 19.3124 286.735 19.534 288.304 19.534H290.999L290.847 20.4956C289.986 20.5324 289.011 20.5475 288.186 20.5475C286.532 20.5475 284.982 20.4716 284.982 18.7189C284.982 18.5401 285.001 18.3418 285.034 18.1254L286.014 11.9442C286.386 9.61686 288.111 9.51318 289.934 9.51318C290.622 9.51318 291.696 9.54098 292.572 9.57929L292.426 10.5259Z" fill="black"/>
    <path fill-rule="evenodd" clip-rule="evenodd" d="M299.207 12.1274H300.437L297.125 16.1278L299.372 20.5181H298.048L296.31 17.0413L293.492 20.5181H292.243L295.848 16.1556L293.798 12.1274H295.103L296.667 15.2564L299.207 12.1274Z" fill="black"/>
    <path fill-rule="evenodd" clip-rule="evenodd" d="M307.468 16.3258C307.548 15.836 307.59 15.398 307.59 15.0156C307.59 13.6401 307.02 12.9617 305.423 12.9617C304.787 12.9617 303.981 13.0796 303.383 13.3388C303.298 13.7392 303.204 14.2621 303.143 14.658L302.398 19.3555C302.879 19.5343 303.629 19.6846 304.259 19.6846C306.544 19.6846 307.096 18.6764 307.468 16.3258ZM301.724 23.6098H300.604L302.106 14.1209C302.182 13.6311 302.276 13.1503 302.38 12.689C303.36 12.2037 304.538 12.0151 305.574 12.0151C307.728 12.0151 308.739 12.7258 308.739 14.8045C308.739 15.247 308.693 15.7511 308.603 16.3258C308.094 19.5343 306.921 20.6319 304.467 20.6319C303.685 20.6319 302.941 20.5095 302.248 20.3209L301.724 23.6098Z" fill="black"/>
    <path fill-rule="evenodd" clip-rule="evenodd" d="M313.708 16.0947C314.438 16.0616 315.687 15.9624 316.464 15.8633C316.507 15.6942 316.549 15.4493 316.577 15.275C316.61 15.0579 316.629 14.8559 316.629 14.662C316.629 13.5975 316.072 12.9477 314.547 12.9477C312.506 12.9477 311.861 14.031 311.517 16.1983L313.708 16.0947ZM314.683 12.0146C316.963 12.0146 317.722 13.0085 317.722 14.6245C317.722 14.9828 317.684 15.378 317.618 15.7934C317.58 16.0285 317.524 16.3396 317.473 16.589C316.507 16.7497 314.528 16.9383 313.369 16.9849L311.409 17.0653C311.395 17.2726 311.385 17.4604 311.385 17.6445C311.385 18.9824 311.871 19.6661 313.717 19.6661C314.787 19.6661 315.795 19.5481 316.652 19.4302L316.615 20.3535C315.649 20.4992 314.679 20.6314 313.124 20.6314C310.98 20.6314 310.273 19.4723 310.273 17.7436C310.273 17.3004 310.32 16.8249 310.4 16.3208C310.881 13.2775 311.983 12.0146 314.683 12.0146Z" fill="black"/>
    <path fill-rule="evenodd" clip-rule="evenodd" d="M319.073 20.5187L320.087 14.1204C320.162 13.6306 320.256 13.1498 320.36 12.6885C321.34 12.2032 322.518 12.0146 323.554 12.0146C323.823 12.0146 324.077 12.0244 324.312 12.0522L324.068 13.0228C323.865 12.9995 323.644 12.9905 323.399 12.9905C322.763 12.9905 321.952 13.113 321.354 13.3714C321.269 13.7673 321.175 14.2947 321.114 14.6906L320.19 20.5187H319.073Z" fill="black"/>
    <path fill-rule="evenodd" clip-rule="evenodd" d="M325.854 9.9559C325.854 9.86199 325.869 9.74855 325.887 9.61709C325.986 8.99505 326.174 8.77344 326.692 8.77344C327.107 8.77344 327.267 8.91016 327.267 9.27752C327.267 9.37669 327.253 9.48487 327.234 9.61709C327.14 10.2293 326.965 10.4412 326.429 10.4412C326.009 10.4412 325.854 10.3097 325.854 9.9559ZM325.6 12.1277H326.725L325.397 20.5191H324.271L325.6 12.1277Z" fill="black"/>
    <path fill-rule="evenodd" clip-rule="evenodd" d="M331.697 16.0947C332.428 16.0616 333.676 15.9624 334.453 15.8633C334.496 15.6942 334.538 15.4493 334.566 15.275C334.599 15.0579 334.618 14.8559 334.618 14.662C334.618 13.5975 334.062 12.9477 332.536 12.9477C330.495 12.9477 329.85 14.031 329.506 16.1983L331.697 16.0947ZM332.673 12.0146C334.953 12.0146 335.711 13.0085 335.711 14.6245C335.711 14.9828 335.674 15.378 335.608 15.7934C335.569 16.0285 335.513 16.3396 335.462 16.589C334.496 16.7497 332.517 16.9383 331.358 16.9849L329.398 17.0653C329.384 17.2726 329.375 17.4604 329.375 17.6445C329.375 18.9824 329.86 19.6661 331.706 19.6661C332.776 19.6661 333.784 19.5481 334.642 19.4302L334.604 20.3535C333.638 20.4992 332.668 20.6314 331.113 20.6314C328.969 20.6314 328.263 19.4723 328.263 17.7436C328.263 17.3004 328.309 16.8249 328.39 16.3208C328.87 13.2775 329.973 12.0146 332.673 12.0146Z" fill="black"/>
    <path fill-rule="evenodd" clip-rule="evenodd" d="M343.625 15.275C343.677 14.931 343.715 14.6342 343.715 14.3706C343.715 13.4187 343.263 12.9755 341.646 12.9755C340.963 12.9755 339.898 13.1498 339.352 13.3857C339.267 13.7816 339.173 14.3044 339.112 14.7003L338.188 20.5187H337.071L338.079 14.1489C338.155 13.6591 338.25 13.1783 338.349 12.7171C339.348 12.3016 340.699 12.0146 342.174 12.0146C344.351 12.0146 344.878 12.8297 344.878 13.9934C344.878 14.3277 344.835 14.6906 344.775 15.0677L343.913 20.5187H342.796L343.625 15.275Z" fill="black"/>
    <path fill-rule="evenodd" clip-rule="evenodd" d="M349.49 20.6319C347.365 20.6319 346.753 19.4637 346.753 17.8335C346.753 17.3339 346.81 16.7968 346.899 16.2319C347.337 13.4846 348.18 12.0151 351.154 12.0151C351.874 12.0151 352.463 12.1143 352.953 12.2555L352.722 13.1315C352.364 13.0654 351.818 12.9903 351.375 12.9903C348.826 12.9903 348.407 13.909 348.039 16.2319C347.944 16.8254 347.875 17.3482 347.875 17.796C347.875 18.9919 348.382 19.6433 350.306 19.6433C350.725 19.6433 351.308 19.5441 351.719 19.4637L351.681 20.387C350.998 20.523 350.339 20.6319 349.49 20.6319Z" fill="black"/>
    <path fill-rule="evenodd" clip-rule="evenodd" d="M356.648 16.0947C357.378 16.0616 358.626 15.9624 359.403 15.8633C359.446 15.6942 359.488 15.4493 359.517 15.275C359.55 15.0579 359.568 14.8559 359.568 14.662C359.568 13.5975 359.012 12.9477 357.486 12.9477C355.446 12.9477 354.8 14.031 354.456 16.1983L356.648 16.0947ZM357.623 12.0146C359.903 12.0146 360.661 13.0085 360.661 14.6245C360.661 14.9828 360.624 15.378 360.558 15.7934C360.519 16.0285 360.463 16.3396 360.412 16.589C359.446 16.7497 357.467 16.9383 356.308 16.9849L354.348 17.0653C354.334 17.2726 354.325 17.4604 354.325 17.6445C354.325 18.9824 354.81 19.6661 356.657 19.6661C357.726 19.6661 358.735 19.5481 359.592 19.4302L359.554 20.3535C358.588 20.4992 357.618 20.6314 356.063 20.6314C353.919 20.6314 353.213 19.4723 353.213 17.7436C353.213 17.3004 353.259 16.8249 353.34 16.3208C353.821 13.2775 354.923 12.0146 357.623 12.0146Z" fill="black"/>
    </g>
    </svg>
    