<svg id="Layer_1" data-name="Layer 1" xmlns="http://www.w3.org/2000/svg" viewBox="0 0 170.69 58"><defs><style>.cls-1,.cls-3{fill:#1c1d1c;}.cls-2{fill:#1d1d1b;}.cls-3{fill-rule:evenodd;}</style></defs><path class="cls-1" d="M128.31,18.07V15.5s.11-1.21-1.79-1.21h-9.6v5.08h10S128.31,19.41,128.31,18.07Z" transform="translate(0.02)"/><path class="cls-1" d="M144.64,14.55V26h13.18V14.55Zm6.89,7.86a2.28,2.28,0,1,1,2.28-2.28A2.28,2.28,0,0,1,151.53,22.41Z" transform="translate(0.02)"/><path class="cls-2" d="M128.31,18.07V15.5s.11-1.21-1.79-1.21h-9.6v5.08h10S128.31,19.41,128.31,18.07Z" transform="translate(0.02)"/><path class="cls-2" d="M144.64,26h13.18V14.55H144.64Zm6.89-8.16a2.28,2.28,0,1,1-2.28,2.28A2.28,2.28,0,0,1,151.53,17.85Z" transform="translate(0.02)"/><path class="cls-2" d="M0,0V40.56H170.66V0ZM26.62,29.38H8.73V11.17H26.51v3.12H13.18v4.1h7.3v3h-7.3V26H26.62Zm25.65,0h-18V11.18h4.21V26H52.27Zm23.86,0H58.24V11.17H76v3.12H62.69v4.1H70v3h-7.3V26H76.13Zm28-3.35a3.26,3.26,0,0,1-3.32,3.36H88.55c-4.79,0-4.26-3.36-4.26-3.36V14.51c0-3.34,4.26-3.32,4.26-3.32h11.87c3.92,0,3.67,3.32,3.67,3.32v2.76l-4.19.59v-3c0-.35-.56-.33-.56-.33H89a.42.42,0,0,0-.46.31V25.47a.52.52,0,0,0,.35.52H99.52c.44,0,.44-.52.44-.52l0-3.35,4.23.82Zm-7.75-5.9a2.28,2.28,0,1,1-2.28-2.28A2.28,2.28,0,0,1,96.42,20.13Zm31.81,9.25L121,22.52h-4.15v6.86h-4.15V11.18h15.57c4,0,4,3.34,4,3.34v5.41c0,2.73-4.06,2.61-4.06,2.61h-2.35l8.3,6.8Zm33.69-14.83V26c0,4.08-4.1,3.39-4.1,3.39h-13.2c-4.57,0-4.32-3.38-4.32-3.38V14.55c0-3.64,4.34-3.37,4.34-3.37s8.83-.06,13.18-.06S161.92,14.55,161.92,14.55Z" transform="translate(0.02)"/><path class="cls-3" d="M11.42,48.91H2.66v2.4H7.75v2H2.66V56h8.87v2H0V46.91H11.44Zm4.83-2V58h2.4V50.53L27.08,58H29.4V46.91H27.09v7.6l-8.43-7.6Zm45.55,0V58h2.4V50.53L72.64,58H75V46.91H72.65v7.6l-8.43-7.6Zm30.3,0H80.65V58H92.18V56H83.31V53.33H88.4v-2H83.31v-2.4h8.76Zm16.25,0H96.91V58h11.53V56H99.57V53.33h5.09v-2H99.57v-2.4h8.76Zm30.51,0V58h2.4V50.53L149.69,58H152V46.91H149.7v7.6l-8.43-7.6Zm-85.35,0V58h2.71V46.93Zm77,0V58h2.71V46.93Zm-93,0s-2.53-.32-2.62,2,0,7.08,0,7.08-.17,2,1.23,2H46.69s1.41,0,1.41-2,0-4.32,0-4.32H41.25v1.84h4.3v2s.14.49-.48.49H37.85s-.37,0-.37-.56V49.25a.3.3,0,0,1,.32-.32h7.52s.24-.09.24.24v1.07l2.57-.41v-.9s.06-2-1.81-2ZM160,46.9s-2.53-.32-2.62,2,0,7.08,0,7.08-.17,2,1.22,2h10.61s1.41,0,1.41-2,0-4.32,0-4.32h-6.85v1.84h4.3v2s.14.49-.48.49h-7.22s-.37,0-.37-.56V49.25a.3.3,0,0,1,.32-.32h7.52s.24-.09.24.24v1.07l2.57-.41v-.9s.06-2-1.81-2Zm-44.18,0h-2.6V58h2.55V53.89h2.4l4.32,4.1h3.89l-4.89-4.1h1.25s2.51,0,2.51-1.46V48.91s.56-2-2.59-2Zm0,2v3h6.25a1,1,0,0,0,.69-1V49.58a.63.63,0,0,0-.63-.67Z" transform="translate(0.02)"/></svg>