<svg id="Layer_1" data-name="Layer 1" xmlns="http://www.w3.org/2000/svg" viewBox="0 0 426.21 107.55"><polygon points="41.3 53.83 55.06 40.06 55.06 67.6 41.3 53.83 41.3 81.36 27.53 67.6 27.53 107.55 81.25 53.83 27.53 0 27.53 40.06 41.3 26.3 41.3 53.83 41.3 53.83" fill="#09244f" fill-rule="evenodd"/><polygon points="41.3 53.83 13.77 26.3 13.77 53.83 27.53 40.06 27.53 67.6 41.3 53.83 41.3 53.83" fill="#4f8309" fill-rule="evenodd"/><polygon points="0 40.06 27.53 67.6 13.77 81.36 13.77 53.83 0 67.6 0 40.06 0 40.06" fill="#4f8309" fill-rule="evenodd"/><path d="M109.17,81V34.87H133.3c7.08,0,11.85,2,15.14,5.53a16.49,16.49,0,0,1-.68,22.43c-3.15,3-7.61,4.85-14.46,4.85H120.16V81Zm11-36.87v14.2h13.53a8,8,0,0,0,5.77-1.92,8,8,0,0,0,2-5.14,7.83,7.83,0,0,0-1.84-5.06,7.74,7.74,0,0,0-5.92-2.08Z" transform="translate(-6.23 -4.25)" fill="#09244f"/><path d="M190.22,62.68H171.7v9.05h28.18v9.45H160.71V34.87h39.17V44.4H171.7v8.83h18.52Z" transform="translate(-6.23 -4.25)" fill="#09244f"/><polygon points="238.68 30.61 238.68 57.94 213.01 30.61 203.55 30.61 203.55 76.79 214.62 76.79 214.62 49.75 214.69 49.75 240.22 76.93 249.76 76.93 249.76 30.61 238.68 30.61" fill="#09244f"/><path d="M263.64,34.87h49.64l-4.42,9.53h-16V81.18h-11V44.4H263.64Z" transform="translate(-6.23 -4.25)" fill="#09244f"/><path d="M337.2,34.87h-9.46L306.21,81.18h11.61l2.84-6.72h23.15l2.47,6.73h12.07Zm-12.84,30.9L332,48h.46l7.62,17.76Z" transform="translate(-6.23 -4.25)" fill="#09244f"/><path d="M365.84,81.18V34.87h11V81.18Z" transform="translate(-6.23 -4.25)" fill="#09244f"/><path d="M389.09,81V34.87h24.14c7.14,0,11.83,2.08,15.06,5.45a16.33,16.33,0,0,1,4.16,10.91c0,6.46-4,12-10.16,14.68L431.84,81H419.23L411.3,67.68H400.08V81Zm11-36.87v14.2h14.3a7.14,7.14,0,0,0,7-7.14,7.43,7.43,0,0,0-1.75-4.91c-1.78-1.92-4-2.15-6-2.15Z" transform="translate(-6.23 -4.25)" fill="#09244f"/></svg>