<?xml version="1.0" encoding="utf-8"?>
<!-- Generator: Adobe Illustrator 17.0.0, SVG Export Plug-In . SVG Version: 6.00 Build 0)  -->
<!DOCTYPE svg PUBLIC "-//W3C//DTD SVG 1.1//EN" "http://www.w3.org/Graphics/SVG/1.1/DTD/svg11.dtd">
<svg version="1.1" id="Layer_1" xmlns="http://www.w3.org/2000/svg" xmlns:xlink="http://www.w3.org/1999/xlink" x="0px" y="0px"
	 width="312px" height="147.303px" viewBox="144.321 321.649 312 147.303" enable-background="new 144.321 321.649 312 147.303"
	 xml:space="preserve">
<title>Logo_SPECK Pumps</title>
<g id="Hilfslinien">
	<path fill="#092B52" d="M162.548,382.467c-6.324,0-12.461-1.488-18.227-4.464l1.86-11.159c5.022,2.79,10.601,4.278,16.181,4.278
		c6.324,0,9.299-2.418,9.299-6.324c0-9.299-26.968-5.394-26.968-24.922c0-9.857,6.324-18.041,21.203-18.041
		c5.58,0,11.159,1.116,16.367,2.976l-1.674,11.159c-4.65-1.488-9.299-2.418-14.135-2.418c-7.254,0-9.299,2.418-9.299,5.58
		c0,9.113,26.968,4.836,26.968,24.736C184.495,375.4,176.311,382.467,162.548,382.467z"/>
	<path fill="#092B52" d="M210.905,362.381h-7.812v19.157h-13.205v-58.772h21.017c16.181,0,22.877,6.324,22.877,20.087
		C233.782,355.127,227.272,362.381,210.905,362.381z M210.905,333.738h-7.812v18.041h7.812c6.51,0,9.299-1.674,9.299-8.927
		C220.204,335.784,217.601,333.738,210.905,333.738z"/>
	<path fill="#092B52" d="M279.535,369.82l-0.372,11.531h-39.802v-58.586h38.686l0.186,11.717h-25.666V346.2h21.761v10.415h-21.761
		v13.391h26.968V369.82z"/>
	<path fill="#092B52" d="M321.754,335.412c-3.72-1.302-7.626-2.046-11.531-2.046c-10.601,0-14.135,4.278-14.135,18.227
		c0,14.693,3.72,19.157,14.321,19.157c3.906,0,7.811-0.744,11.531-2.232l1.302,10.787c-4.65,2.046-9.485,3.162-14.693,3.162
		c-17.669,0-26.41-9.857-26.41-30.874c0-19.529,8.37-29.944,27.154-29.944c4.65,0,9.299,0.93,13.577,2.418L321.754,335.412z"/>
	<path fill="#092B52" d="M362.672,381.351l-14.507-24.736h-6.138v24.736h-13.205v-58.586h13.205v23.249h6.324l14.135-23.249h15.065
		l-17.483,27.898l18.413,30.874h-15.809V381.351z"/>
	<path fill="#092B52" d="M456.224,380.05c-0.186-0.372-0.558-0.558-1.302-0.744l-6.696-2.232l0,0l0,0
		c-0.186-0.186-0.372-0.372-0.558-0.558c-0.186-0.186-0.186-0.372-0.372-0.744c0-0.186,0.186-0.372,0.372-0.744l0,0l0,0l1.302-1.86
		c0.186-0.372,0.372-0.558,0.372-0.744c0-0.186-0.186-0.558-0.372-0.744c-0.186-0.186-0.372-0.372-0.558-0.558
		c-0.186,0-0.558,0-0.744,0.186l-0.93,0.372l-1.302,0.372c-0.186,0.186-0.558,0.186-0.744,0c-0.186-0.186-0.372-0.372-0.558-0.558
		c-0.186-0.186-0.186-0.372-0.372-0.744c0-0.186,0.186-0.372,0.372-0.744l1.488-2.046c0.186-0.186,0.186-0.372,0.186-0.558
		c0-0.186-0.186-0.558-0.372-0.744c-0.186-0.186-0.372-0.372-0.558-0.558c-0.186,0-0.372,0-0.744,0l0,0h-0.186l-1.86,0.558
		l-0.372,0.186c-0.186,0.186-0.558,0.186-0.744,0c-0.186-0.186-0.372-0.372-0.558-0.558s-0.186-0.372-0.372-0.744
		c0-0.186,0.186-0.372,0.372-0.744l0.93-1.302l0.372-0.558c0.186-0.372,0.372-0.558,0.372-0.744c0-0.186-0.186-0.558-0.372-0.744
		c-0.186-0.186-0.372-0.372-0.558-0.558c-0.186,0-0.372,0-0.744,0.186l-0.558,0.186l-1.674,0.558
		c-0.186,0.186-0.558,0.186-0.744,0.186c-0.186-0.186-0.372-0.372-0.558-0.558c-0.186-0.186-0.186-0.372-0.372-0.744
		c0-0.186,0.186-0.372,0.372-0.744l0.372-0.558l1.116-1.488c0.186-0.186,0.372-0.372,0.372-0.744
		c-0.186-0.558-0.372-0.93-0.93-1.302c-0.186,0-0.372,0-0.744,0l-1.86,0.558l-0.372,0.186c-0.372,0.186-0.744,0.186-0.744,0
		c-0.186-0.186-0.372-0.372-0.558-0.558c-0.186-0.186-0.372-0.372-0.372-0.744l0,0l0,0v-9.485c0-0.372,0.186-0.558,0.372-0.744
		c0.186-0.186,0.558-0.372,0.93-0.558c0.186-0.186,0.558-0.186,0.744-0.186c0.186,0,0.372,0.186,0.372,0.186l0,0l2.046,2.046
		c0.186,0.186,0.558,0.558,0.744,0.558c0.186,0,0.558-0.186,0.744-0.186c0.186-0.186,0.372-0.186,0.558-0.372
		c0-0.186,0-0.558,0-0.744l-0.372-2.976l0,0c0-0.186,0-0.372,0-0.372c0.186-0.186,0.372-0.372,0.558-0.558
		c0.186-0.186,0.558-0.372,0.744-0.372c0.186,0,0.372,0,0.372,0.186l0,0l2.604,1.488c0.372,0.186,0.558,0.372,0.744,0.186
		c0.186,0,0.558-0.186,0.744-0.372c0.186-0.186,0.372-0.372,0.558-0.558c0-0.186,0-0.372-0.186-0.744l-1.302-2.79l0,0
		c0-0.186-0.186-0.372,0-0.372c0-0.186,0.186-0.558,0.372-0.744c0.186-0.186,0.372-0.372,0.558-0.558c0.186,0,0.372,0,0.558,0l0,0
		l2.79,0.744c0.186,0,0.558,0,0.744,0c0.186-0.186,0.372-0.372,0.558-0.558c0.186-0.186,0.186-0.372,0.372-0.744
		c0-0.186-0.186-0.372-0.372-0.744l-1.86-2.232l0,0c-0.186-0.186-0.186-0.186-0.186-0.372c0-0.372,0.186-0.558,0.186-0.744
		c0.186-0.186,0.186-0.558,0.558-0.744c0.186,0,0.372-0.186,0.372,0l0,0h2.976c0.186,0,0.558,0,0.744-0.186
		c0.186-0.186,0.372-0.372,0.372-0.744c0-0.186,0.186-0.558,0.186-0.744c0-0.186-0.186-0.372-0.558-0.558l-2.418-1.674l0,0
		c-0.186,0-0.186-0.186-0.372-0.372c0-0.186,0-0.558,0-0.744c0-0.186,0.186-0.558,0.372-0.744c0.186-0.186,0.186-0.186,0.372-0.186
		l0,0l4.278-1.302c0.744-0.186,1.116-0.372,1.302-0.744c0.186-0.372,0.186-0.93,0.186-1.302h-16.181
		c0,4.836-2.604,9.299-6.882,11.717v-11.531h-12.833v11.717c-4.278-2.418-6.882-6.882-6.882-11.717H397.08
		c0,0.558,0,0.93,0.186,1.302c0.186,0.372,0.558,0.558,1.302,0.744l4.278,1.302l0,0c0.186,0,0.372,0.186,0.372,0.186
		c0.186,0.186,0.186,0.558,0.372,0.744c0,0.186,0,0.558,0,0.744c0,0.186-0.186,0.186-0.372,0.372l0,0l-2.418,1.86
		c-0.372,0.186-0.558,0.372-0.558,0.558c0,0.186,0,0.558,0.186,0.744c0,0.186,0.186,0.558,0.372,0.744
		c0.186,0.186,0.558,0.186,0.744,0.186h2.976l0,0c0.186,0,0.372,0,0.372,0c0.186,0.186,0.372,0.372,0.558,0.744
		c0.186,0.186,0.186,0.558,0.186,0.744c0,0.186-0.186,0.372-0.186,0.372l0,0l-1.86,2.232c-0.186,0.186-0.372,0.372-0.372,0.744
		c0.186,0.558,0.372,0.93,0.93,1.302c0.186,0,0.558,0,0.744,0l2.79-0.744l0,0c0.186,0,0.372,0,0.372,0
		c0.186,0.186,0.558,0.372,0.558,0.558c0.186,0.186,0.372,0.372,0.372,0.744c0,0.186,0,0.372-0.186,0.372l0,0l-1.116,2.79
		c-0.186,0.186-0.186,0.558-0.186,0.744c0.186,0.186,0.372,0.372,0.558,0.558c0.186,0.186,0.372,0.372,0.744,0.372
		c0.186,0,0.372,0,0.744-0.186l2.604-1.488l0,0c0.186-0.186,0.186-0.186,0.372-0.186c0.186,0,0.558,0.186,0.744,0.372
		c0.186,0.186,0.372,0.372,0.558,0.558c0,0.186,0,0.372,0,0.372l0,0l-0.558,2.976c0,0.372,0,0.744,0,0.744
		c0.186,0.186,0.372,0.372,0.558,0.372c0.186,0.186,0.558,0.186,0.744,0.186c0.186,0,0.372-0.186,0.744-0.558l2.046-2.232l0,0
		c0.186-0.186,0.186-0.186,0.372-0.186c0.372,0,0.558,0,0.744,0.186c0.372,0.186,0.744,0.186,0.93,0.558
		c0.186,0.186,0.372,0.558,0.372,0.744v9.671l0,0l0,0c0,0.186-0.186,0.558-0.372,0.744c-0.186,0.186-0.372,0.372-0.558,0.558
		c-0.186,0-0.558,0-0.744,0l-0.372-0.186l-1.86-0.558c-0.372-0.186-0.744-0.186-0.744,0c-0.372,0.372-0.744,0.744-0.93,1.302
		c0,0.372,0.186,0.558,0.372,0.744l1.116,1.488l0.372,0.558c0.186,0.372,0.372,0.558,0.372,0.744c0,0.186-0.186,0.558-0.372,0.744
		c-0.186,0.186-0.372,0.372-0.558,0.558c-0.372,0-0.558,0-0.93-0.186l-1.674-0.558l-0.558-0.186
		c-0.372-0.186-0.744-0.186-0.744-0.186c-0.372,0.372-0.744,0.744-0.93,1.302c0,0.186,0.186,0.372,0.372,0.744l0.372,0.558
		l0.93,1.302c0.186,0.372,0.372,0.558,0.372,0.744c0,0.186-0.186,0.558-0.372,0.744c-0.186,0.186-0.372,0.372-0.558,0.558
		c-0.186,0-0.558,0-0.744,0l-0.372-0.186l-1.86-0.558h-0.186l0,0c-0.186,0-0.372,0-0.744,0c-0.186,0.186-0.372,0.372-0.558,0.558
		s-0.186,0.372-0.372,0.744c0,0.186,0.186,0.372,0.186,0.558l1.488,2.046c0.186,0.372,0.372,0.558,0.372,0.744
		c0,0.186-0.186,0.558-0.372,0.744c-0.186,0.186-0.372,0.372-0.558,0.558c-0.186,0-0.558,0-0.744,0l-1.302-0.372l-0.93-0.372
		c-0.186-0.186-0.558-0.186-0.744-0.186c-0.186,0.186-0.372,0.372-0.558,0.558c-0.186,0.186-0.186,0.372-0.372,0.744
		c0,0.186,0.186,0.372,0.372,0.744l1.302,1.674l0,0l0,0c0.186,0.186,0.372,0.372,0.372,0.744c0,0.186-0.186,0.558-0.372,0.744
		c-0.186,0.186-0.372,0.372-0.558,0.558l0,0l0,0l-6.882,2.232c-0.744,0.186-1.116,0.372-1.302,0.744
		c-0.186,0.372-0.186,0.93-0.186,1.302h19.529l10.229-14.321l10.043,14.507h19.529C456.41,380.979,456.41,380.421,456.224,380.05z"
		/>
	<path fill="#CE3D3E" d="M163.664,452.027c-4.464,0-8.927-0.558-13.205-1.302v16.553c0,0.93-0.744,1.674-1.674,1.674l0,0h-1.116
		c-0.93,0-1.674-0.744-1.674-1.674l0,0v-61.004c0-1.116,0.372-1.488,1.488-1.674c5.208-1.116,10.601-1.674,15.995-1.674
		c13.205,0,18.599,8.927,18.599,21.761v5.766C182.263,444.588,175.939,452.027,163.664,452.027z M177.985,424.687
		c0-11.531-3.72-18.227-14.507-18.227c-4.464,0-8.927,0.558-13.205,1.116v39.802c4.464,0.744,8.741,1.116,13.205,1.116
		c10.415,0,14.507-6.138,14.507-17.855V424.687z"/>
	<path fill="#CE3D3E" d="M192.306,403.298h0.744c0.93,0,1.674,0.744,1.674,1.674v29.758c0,10.229,5.766,13.577,12.833,13.577
		c5.208-0.186,10.229-1.488,15.065-3.72v-39.616c0-0.93,0.93-1.674,1.86-1.674h0.558c0.93,0,1.674,0.744,1.86,1.674v44.637
		c0,0.93-0.744,1.674-1.674,1.86c0,0,0,0-0.186,0h-0.744c-0.93,0-1.674-0.744-1.674-1.674c0,0,0,0,0-0.186v-1.488
		c-4.836,2.232-10.043,3.534-15.251,3.72c-9.113,0-16.739-4.836-16.739-17.111v-29.758
		C190.446,404.042,191.19,403.298,192.306,403.298L192.306,403.298z"/>
	<path fill="#CE3D3E" d="M292.368,451.469h-0.93c-0.93,0-1.674-0.744-1.674-1.674c0,0,0,0,0-0.186v-31.99
		c0-8.555-4.278-11.345-11.159-11.345c-4.464,0.186-8.741,1.116-12.833,2.976c0.93,2.604,1.488,5.208,1.488,7.812v32.548
		c0,0.93-0.372,1.674-1.488,1.674h-1.488c-0.93,0-1.302-0.744-1.302-1.674v-32.362c0-8.369-3.906-10.973-8.927-10.973
		c-4.278,0-9.299,1.86-13.577,3.72v39.616c0.186,0.744-0.558,1.674-1.302,1.674c0,0,0,0-0.186,0h-1.302
		c-0.93,0-1.488-0.744-1.488-1.674v-44.637c0-0.93,0.744-1.674,1.674-1.86c0,0,0,0,0.186,0h0.744c0.93,0,1.674,0.744,1.674,1.674
		l0,0v1.674c3.906-1.86,9.485-3.906,14.507-3.906c3.348-0.186,6.696,1.116,8.927,3.72c4.836-2.232,10.043-3.534,15.251-3.72
		c7.998,0,14.693,4.092,14.693,14.879v32.176C294.042,450.539,293.298,451.283,292.368,451.469L292.368,451.469z"/>
	<path fill="#CE3D3E" d="M321.01,452.027c-4.464,0-8.927-0.558-13.205-1.302v16.553c0,0.93-0.744,1.674-1.674,1.674l0,0h-0.93
		c-0.93,0-1.674-0.744-1.674-1.674l0,0v-61.004c0-1.116,0.372-1.488,1.488-1.674c5.208-1.116,10.601-1.674,15.995-1.674
		c13.205,0,18.599,8.927,18.599,21.761v5.766C339.609,444.588,333.285,452.027,321.01,452.027z M335.517,424.687
		c0-11.531-3.72-18.227-14.507-18.227c-4.464,0-8.927,0.558-13.205,1.116v39.802c4.464,0.744,8.741,1.116,13.205,1.116
		c10.415,0,14.507-6.138,14.507-17.855V424.687z"/>
	<path fill="#CE3D3E" d="M361.742,452.027c-4.65,0-9.299-0.558-13.763-1.302c-1.302-0.186-2.046-0.372-2.046-1.488v-0.93
		c0-1.116,0.93-1.488,2.046-1.302c4.65,0.744,9.299,1.302,13.949,1.488c6.882,0,12.089-1.674,12.089-8.927
		c0-3.72-2.046-5.58-10.043-9.857l-6.138-3.162c-7.068-3.72-11.531-6.696-11.531-12.647c0-8.369,7.068-10.973,14.507-10.973
		c4.464,0,9.113,0.186,13.577,0.744c1.302,0.186,2.046,0.372,2.046,1.488v0.744c0,1.488-0.558,1.674-2.046,1.488
		c-4.464-0.558-8.741-0.93-13.205-0.93c-6.138,0-10.787,1.116-10.787,7.626c0,3.906,3.348,6.324,9.299,9.299l6.324,3.348
		c7.998,4.092,12.089,7.068,12.089,13.019C378.295,449.051,370.669,452.027,361.742,452.027z"/>
</g>
</svg>
