<svg width="213" height="42" viewBox="0 0 213 42" fill="none" xmlns="http://www.w3.org/2000/svg">
<g clip-path="url(#clip0_1506:13202)">
<path d="M39.9835 0H0V41.2717H39.9835V0Z" fill="#FFE400"/>
<path d="M39.4925 0.492188H0.490967V40.7796H39.4925V0.492188Z" fill="#0466A9"/>
<path d="M56.9239 28.8619C66.3236 24.5027 73.5486 16.7335 76.3896 7.59326H48.1907V19.1592C51.8032 13.429 58.5373 8.89399 69.0943 8.89399C58.1164 12.7259 50.5406 22.534 48.2257 30.936H76.3896V18.8779C72.3562 27.3151 64.7803 28.8619 56.9239 28.8619Z" fill="#0062AE"/>
<path d="M131.595 9.63224C129.175 8.12058 126.439 7.55811 119.951 7.55811C117.145 7.55811 115.531 7.66357 113.111 7.69872C111.428 7.73388 109.429 7.90965 109.253 7.90965C109.008 7.90965 107.745 8.12058 107.745 9.14007C107.745 9.52677 107.991 10.0541 108.973 10.0541C109.148 10.0541 110.2 9.91348 110.411 9.91348C111.638 9.91348 111.638 10.8978 111.638 12.4446V24.9597C111.638 28.2291 111.603 28.7213 110.025 28.7916C109.253 28.8267 108.341 28.8619 108.341 29.8111C108.341 30.7954 109.218 30.7954 109.569 30.7954C110.2 30.7954 113.217 30.69 113.883 30.69C115.181 30.69 121.564 30.7954 123.002 30.7954C132.928 30.7954 136.295 24.6785 136.295 19.0186C136.295 15.8195 135.172 11.9173 131.595 9.63224ZM122.055 28.5807C119.951 28.5807 119.88 27.3503 119.88 25.9441V11.2494C119.845 10.3002 120.091 9.80801 121.248 9.80801C124.23 9.80801 127.141 13.3235 127.141 19.8271C127.141 21.9013 126.72 28.5807 122.055 28.5807Z" fill="#0062AE"/>
<path d="M93.3299 7.31201C86.7362 7.31201 79.6514 11.7415 79.6514 19.1592C79.6514 26.1901 86.175 31.3579 93.7859 31.3579C101.362 31.3579 107.535 25.7331 107.535 18.9482C107.5 14.2375 103.957 7.31201 93.3299 7.31201ZM93.6456 29.108C91.1554 29.108 88.9809 24.8894 88.9809 19.1592C88.9809 13.0774 91.3308 9.45645 93.5053 9.45645C97.0126 9.45645 98.2051 15.1164 98.2051 18.9482C98.1701 24.5027 96.1358 29.108 93.6456 29.108Z" fill="#0062AE"/>
<path d="M150.745 9.84366C151.517 9.80851 152.464 9.77335 152.464 8.78902C152.464 7.80469 151.587 7.80469 151.166 7.80469C150.64 7.80469 149.097 7.91015 145.449 7.91015C142.012 7.91015 139.522 7.80469 138.89 7.80469C138.469 7.80469 137.593 7.80469 137.593 8.78902C137.593 9.7382 138.504 9.77335 139.311 9.84366C140.854 9.91397 140.889 10.4413 140.889 13.6404V25.0305C140.889 28.2648 140.854 28.7569 139.311 28.8272C138.54 28.8624 137.593 28.8976 137.593 29.8467C137.593 30.8311 138.504 30.8311 138.89 30.8311C139.627 30.8311 140.749 30.7256 145.73 30.7256C150.429 30.7256 150.955 30.8311 151.166 30.8311C151.587 30.8311 152.464 30.8311 152.464 29.8467C152.464 28.9327 151.587 28.8624 150.745 28.8272C149.202 28.7569 149.167 28.2296 149.167 25.0305V13.5701C149.167 10.371 149.202 9.91397 150.745 9.84366Z" fill="#0062AE"/>
<path d="M202.583 23.4129C201.075 23.4129 200.339 24.8191 199.813 25.7331C198.62 27.8424 197.919 29.108 196.025 29.108C193.85 29.108 190.448 26.8581 190.448 18.8428C190.448 14.0266 192.097 9.56192 195.674 9.56192C197.358 9.56192 197.989 10.2299 199.287 12.0579C200.128 13.2532 200.9 14.2375 202.163 14.2375C203.495 14.2375 203.495 13.3586 203.495 12.9016C203.495 12.8313 203.495 12.6204 203.46 12.2688L203.25 9.70254C203.18 8.96429 203.145 8.54243 202.338 8.26119C201.286 7.90964 198.48 7.31201 195.814 7.31201C187.677 7.31201 181.294 11.7767 181.294 19.1943C181.294 24.6082 185.573 31.3579 195.428 31.3579C196.551 31.3579 199.216 31.3227 202.408 30.1626C203.425 29.7408 203.706 29.6001 203.776 28.3697L203.986 25.2761C203.986 24.5379 203.986 23.4129 202.583 23.4129Z" fill="#0062AE"/>
<path d="M182.03 28.8624C180.838 28.5811 180.662 28.546 180.312 28.1944C179.68 27.5968 177.786 23.1321 174.384 15.0465C173.963 14.027 171.613 7.98042 171.403 7.59372C171.052 6.99609 168.948 6.92578 168.281 6.92578C167.089 6.92578 164.634 6.99609 164.458 8.08589C164.353 8.68352 163.932 9.80847 163.722 10.3709L157.584 25.8742C156.532 28.4053 156.286 28.5108 155.655 28.6866C154.813 28.8975 154.112 29.1084 154.112 29.8819C154.112 30.7959 155.059 30.7959 155.445 30.7959C156.006 30.7959 157.339 30.6904 159.303 30.6904C160.565 30.6904 162.179 30.7959 162.564 30.7959C162.845 30.7959 163.722 30.7959 163.722 29.8467C163.722 29.0733 163.266 28.9678 162.354 28.6866C161.337 28.4053 160.706 28.0186 160.706 27.1046C160.706 26.964 160.741 26.6828 160.811 26.4015L161.162 24.9953C161.442 24.011 161.688 24.011 162.459 24.011H167.79C169.088 24.011 169.263 24.011 169.579 24.8547L170.456 27.2804C170.596 27.7023 170.596 27.9132 170.596 28.0538C170.596 28.6163 169.825 28.6866 169.369 28.7217C168.316 28.792 167.545 28.8624 167.545 29.7412C167.545 30.7607 168.843 30.7607 169.228 30.7607C170.21 30.7607 174.56 30.6553 175.436 30.6553C177.962 30.6553 180.768 30.7607 181.679 30.7607C182.206 30.7607 183.117 30.6201 183.117 29.8467C183.117 29.1436 182.311 28.9678 182.03 28.8624ZM167.019 21.4799H163.02C162.529 21.4799 162.459 21.3744 162.459 21.1986C162.459 21.058 162.529 20.7416 162.67 20.3549L165.055 14.0622L167.51 20.1791C167.72 20.7065 167.755 20.9174 167.755 21.0932C167.79 21.3392 167.545 21.4799 167.019 21.4799Z" fill="#0062AE"/>
<path d="M210.019 11.2143C210.475 11.0736 210.825 10.6869 210.825 10.1948C210.825 9.73776 210.685 9.45652 210.44 9.28075C210.159 9.06982 209.703 8.9292 208.966 8.9292C208.335 8.9292 207.949 8.99951 207.599 9.03466V13.2884H208.511V11.5307H208.931C209.387 11.5307 209.668 11.7064 209.738 12.1634C209.808 12.7259 209.878 13.1126 209.984 13.2532H210.931C210.86 13.1126 210.79 12.8665 210.685 12.1986C210.615 11.6361 210.404 11.2846 210.019 11.2143ZM208.966 10.8627H208.546V9.63229C208.651 9.63229 208.826 9.63229 209.037 9.63229C209.633 9.63229 209.913 9.91353 209.913 10.2651C209.913 10.6869 209.493 10.8627 208.966 10.8627Z" fill="#0062AE"/>
<path d="M209.212 7.2417C207.073 7.2417 205.389 8.96428 205.389 11.0736C205.389 13.218 207.108 14.9406 209.212 14.9406C211.352 14.9406 213.035 13.2532 213.035 11.0736C213 8.96428 211.317 7.2417 209.212 7.2417ZM209.212 14.1672C207.599 14.1672 206.301 12.8313 206.301 11.1087C206.301 9.4213 207.599 8.0151 209.177 8.0151C210.79 8.0151 212.088 9.38614 212.088 11.1087C212.123 12.8313 210.826 14.2023 209.212 14.1672Z" fill="#0062AE"/>
<path d="M29.8123 3.79685C16.6247 8.33181 5.85721 20.7063 3.1215 30.6199H36.9321V16.4174C31.9167 27.1396 21.7103 28.8622 12.2756 28.8622C23.5341 23.7296 33.2845 13.7105 36.8971 3.09375H3.08643V16.7338C7.7161 8.85913 17.1859 3.79685 29.8123 3.79685Z" fill="#FFE400"/>
<path d="M4.66464 37.8968C6.66382 36.9476 8.41748 35.1547 9.0488 33.2212H3.05127V35.682C3.85796 34.2758 5.54147 33.3618 7.82124 33.3618C5.47133 34.1704 3.5423 36.4203 3.05127 38.2132H9.08387V35.6469C8.17197 37.5804 6.38323 37.8968 4.66464 37.8968Z" fill="#FFE400"/>
<path d="M12.6967 33.1509C11.2938 33.1509 9.78564 34.1001 9.78564 35.682C9.78564 37.1937 11.1886 38.2835 12.8019 38.2835C14.4153 38.2835 15.7481 37.0882 15.7481 35.6469C15.713 34.6625 14.9765 33.1509 12.6967 33.1509ZM12.7669 37.8265C12.2408 37.8265 11.7848 36.9124 11.7848 35.682C11.7848 34.3813 12.2758 33.6079 12.7318 33.6079C13.5034 33.6079 13.7489 34.8032 13.7489 35.6469C13.7139 36.8421 13.293 37.8265 12.7669 37.8265Z" fill="#FFE400"/>
<path d="M21.1844 33.6782C20.6583 33.3618 20.0621 33.2563 18.6942 33.2563C18.098 33.2563 17.7472 33.2915 17.2211 33.2915C16.8704 33.2915 16.4145 33.3267 16.3794 33.3267C16.3443 33.3267 16.0637 33.3618 16.0637 33.5727C16.0637 33.6431 16.1339 33.7837 16.3092 33.7837C16.3443 33.7837 16.5898 33.7485 16.6249 33.7485C16.8704 33.7485 16.8704 33.9594 16.8704 34.2758V36.9476C16.8704 37.6507 16.8704 37.7562 16.5197 37.7562C16.3443 37.7562 16.1689 37.7562 16.1689 37.9671C16.1689 38.178 16.3443 38.178 16.4145 38.178C16.5547 38.178 17.1861 38.1429 17.3264 38.1429C17.6069 38.1429 18.9748 38.178 19.2905 38.178C21.4299 38.178 22.1314 36.8773 22.1314 35.6469C22.2015 34.9789 21.956 34.1352 21.1844 33.6782ZM19.1502 37.721C18.6942 37.721 18.6942 37.4398 18.6942 37.1585V34.0298C18.6942 33.8188 18.7293 33.7134 18.9748 33.7134C19.6061 33.7134 20.2374 34.4868 20.2374 35.8578C20.2374 36.2797 20.1673 37.721 19.1502 37.721Z" fill="#FFE400"/>
<path d="M25.3929 33.7134C25.5683 33.7134 25.7437 33.7134 25.7437 33.5024C25.7437 33.2915 25.5683 33.2915 25.4631 33.2915C25.3579 33.2915 25.0071 33.3267 24.2355 33.3267C23.499 33.3267 22.9729 33.2915 22.8326 33.2915C22.7624 33.2915 22.552 33.2915 22.552 33.5024C22.552 33.7134 22.7274 33.7134 22.9027 33.7134C23.2535 33.7134 23.2535 33.8188 23.2535 34.5219V36.9476C23.2535 37.6507 23.2535 37.7562 22.9027 37.7562C22.7274 37.7562 22.552 37.7562 22.552 37.9671C22.552 38.178 22.7274 38.178 22.8326 38.178C23.008 38.178 23.2184 38.1429 24.3057 38.1429C25.3228 38.1429 25.428 38.178 25.4631 38.178C25.5332 38.178 25.7437 38.178 25.7437 37.9671C25.7437 37.7562 25.5683 37.7562 25.3929 37.7562C25.0773 37.7562 25.0422 37.6507 25.0422 36.9476V34.5219C25.0422 33.8188 25.0422 33.7485 25.3929 33.7134Z" fill="#FFE400"/>
<path d="M32.1272 37.7913C31.8817 37.721 31.8467 37.721 31.7414 37.6507C31.6012 37.5101 31.2153 36.5609 30.4788 34.8383C30.3736 34.6274 29.8826 33.3267 29.8475 33.2563C29.7773 33.1157 29.3214 33.1157 29.1811 33.1157C28.9356 33.1157 28.4095 33.1157 28.3744 33.3618C28.3393 33.5024 28.2692 33.7485 28.2341 33.854L26.9013 37.1585C26.6909 37.721 26.6207 37.721 26.4805 37.7562C26.3051 37.7913 26.1648 37.8265 26.1648 38.0022C26.1648 38.2132 26.3752 38.2132 26.4454 38.2132C26.5506 38.2132 26.8663 38.178 27.2521 38.178C27.5327 38.178 27.8834 38.2132 27.9535 38.2132C28.0237 38.2132 28.199 38.2132 28.199 38.0022C28.199 37.8265 28.0938 37.7913 27.9185 37.7562C27.708 37.6858 27.5677 37.6155 27.5677 37.4046C27.5677 37.3695 27.5677 37.3343 27.6028 37.264L27.6729 36.9476C27.7431 36.7367 27.7782 36.7367 27.9535 36.7367H29.0759C29.3565 36.7367 29.3915 36.7367 29.4617 36.9124L29.6721 37.4398C29.7072 37.5101 29.7072 37.5804 29.7072 37.5804C29.7072 37.721 29.5318 37.721 29.4617 37.721C29.2512 37.721 29.0759 37.7562 29.0759 37.9319C29.0759 38.1429 29.3565 38.1429 29.4266 38.1429C29.637 38.1429 30.549 38.1077 30.7594 38.1077C31.2855 38.1077 31.8817 38.1429 32.0922 38.1429C32.1974 38.1429 32.4078 38.1077 32.4078 37.9319C32.3728 37.8265 32.1974 37.7913 32.1272 37.7913ZM28.9356 36.2093H28.0938C27.9886 36.2093 27.9886 36.1742 27.9886 36.139C27.9886 36.1039 27.9886 36.0336 28.0237 35.9633L28.5498 34.6274L29.0759 35.9281C29.1109 36.0336 29.146 36.0687 29.146 36.139C29.1109 36.1742 29.0408 36.2093 28.9356 36.2093Z" fill="#FFE400"/>
<path d="M36.6866 36.6312C36.3709 36.6312 36.1955 36.9124 36.0903 37.1234C35.8448 37.5804 35.6694 37.8616 35.2836 37.8616C34.8277 37.8616 34.0911 37.3695 34.0911 35.6469C34.0911 34.6274 34.4419 33.6782 35.2135 33.6782C35.5642 33.6782 35.7045 33.8188 35.9851 34.2055C36.1605 34.4516 36.3358 34.6625 36.6164 34.6625C36.897 34.6625 36.897 34.4868 36.897 34.3813V34.2407L36.8619 33.6782C36.8269 33.5024 36.8269 33.4321 36.6515 33.3618C36.4411 33.2915 35.8448 33.1509 35.2486 33.1509C33.4949 33.1509 32.1621 34.1001 32.1621 35.682C32.1621 36.8421 33.074 38.2835 35.1784 38.2835C35.4239 38.2835 35.9851 38.2835 36.6515 38.0374C36.8619 37.9319 36.9321 37.9319 36.9321 37.6507L37.0022 36.9827C37.0022 36.8421 37.0022 36.6312 36.6866 36.6312Z" fill="#FFE400"/>
</g>
<defs>
<clipPath id="clip0_1506:13202">
<rect width="213" height="41.2717" fill="white"/>
</clipPath>
</defs>
</svg>
